<?xml version="1.0" encoding="UTF-8"?>
<svg width="831px" height="598px" viewBox="0 0 831 598" version="1.1" xmlns="http://www.w3.org/2000/svg" xmlns:xlink="http://www.w3.org/1999/xlink">
    <!-- Generator: Sketch 48.2 (47327) - http://www.bohemiancoding.com/sketch -->
    <title>newsbtc</title>
    <desc>Created with Sketch.</desc>
    <defs></defs>
    <g id="Page-1" stroke="none" stroke-width="1" fill="none" fill-rule="evenodd">
        <g id="newsbtc" fill-rule="nonzero">
            <polygon id="Shape" fill="#025B7A" points="515.180416 60.7608626 450.010794 214.261989 407.850039 115.92533 359.438319 118.59028 300.253662 277.821049 300.120663 277.687802 299.987664 136.711941 414.367001 67.4232379 465.438705 98.0701641 488.181573 44.5046669 414.234002 0 242 104.466044 242.265998 310.200193 278.840786 332.186032 278.840786 332.186032 319.67155 356.570325 384.575173 203.468941 422.213955 290.07982 472.221665 288.081107 528.879337 140.576118 529.145335 277.288059 414.765998 346.576762 369.413261 319.261023 346.670393 372.959768 414.898998 414 587 309.533956 586.734002 103.799807"></polygon>
            <path d="M84,595 L81.7405063,595 C81.7405063,595 13.1582278,522.01039 12.2278481,519.758442 C12.2278481,519.758442 12.2278481,514.194805 12.2278481,521.348052 L12.2278481,595 L0,595 L0,493 L2.39240506,493 L71.7721519,564.797403 C75.2278481,567.579221 71.7721519,571.818182 71.7721519,564.797403 L71.7721519,493 L84,493 L84,595 Z" id="Shape" fill="#323232"></path>
            <polygon id="Shape" fill="#323232" points="204.927835 595 141 595 141 493 206 493 206 503.862338 153.463918 503.862338 153.463918 537.774026 197.556701 537.774026 197.556701 548.503896 153.463918 548.503896 153.463918 584.137662 204.927835 584.137662 204.927835 595"></polygon>
            <path d="M379,493 L349.663717,595.866407 L335.327434,595.866407 L313.955752,520.787289 C313.026549,517.581064 312.495575,514.107652 312.230088,510.367056 L311.964602,510.367056 C311.699115,513.840467 311.035398,517.313878 310.106195,520.653696 L288.60177,596 L274.39823,596 L244,493.133593 L257.40708,493.133593 L279.575221,571.953307 C280.504425,575.293126 281.035398,578.632944 281.300885,582.239948 L281.699115,582.239948 C281.964602,579.701686 282.628319,576.228275 283.955752,571.953307 L306.920354,493.133593 L318.60177,493.133593 L340.637168,572.621271 C341.433628,575.293126 341.964602,578.499351 342.362832,582.239948 L342.628319,582.239948 C342.761062,579.701686 343.424779,576.49546 344.619469,572.354086 L365.858407,493.133593 L379,493.133593 L379,493 Z" id="Shape" fill="#323232"></path>
            <path d="M416,592.125945 L416,577.974811 C417.588235,579.443325 419.573529,580.644836 421.955882,581.846348 C424.205882,583.047859 426.720588,583.982368 429.235294,584.783375 C431.75,585.584383 434.264706,586.118388 436.911765,586.652393 C439.426471,587.052897 441.808824,587.319899 444.058824,587.319899 C451.470588,587.319899 457.161765,585.984887 460.735294,583.18136 C464.441176,580.377834 466.294118,576.506297 466.294118,571.299748 C466.294118,568.496222 465.632353,566.093199 464.441176,564.09068 C463.25,562.088161 461.529412,560.219144 459.279412,558.483627 C457.161765,556.748111 454.514706,555.146096 451.602941,553.677582 C448.691176,552.075567 445.382353,550.473552 442.073529,548.738035 C438.5,546.869018 435.058824,545.133501 432.014706,543.264484 C428.838235,541.395466 426.191176,539.392947 423.808824,537.123426 C421.558824,534.853904 419.705882,532.31738 418.382353,529.513854 C417.058824,526.710327 416.397059,523.372796 416.397059,519.501259 C416.397059,514.828715 417.455882,510.690176 419.441176,507.219144 C421.558824,503.748111 424.205882,500.944584 427.647059,498.675063 C430.955882,496.405542 434.926471,494.803526 439.161765,493.602015 C443.529412,492.534005 447.897059,492 452.397059,492 C462.588235,492 470,493.201511 474.764706,495.604534 L474.764706,509.088161 C468.676471,504.949622 460.735294,502.813602 451.205882,502.813602 C448.558824,502.813602 445.911765,503.080605 443.264706,503.61461 C440.617647,504.148615 438.235294,505.083123 436.117647,506.284635 C434,507.486146 432.411765,509.088161 431.088235,511.09068 C429.764706,513.093199 429.102941,515.496222 429.102941,518.299748 C429.102941,520.969773 429.632353,523.239295 430.558824,525.108312 C431.485294,526.97733 432.941176,528.712846 434.926471,530.314861 C436.911765,531.916877 439.161765,533.38539 441.941176,534.853904 C444.720588,536.322418 447.897059,537.924433 451.470588,539.65995 C455.176471,541.528967 458.75,543.397985 462.058824,545.400504 C465.367647,547.403023 468.279412,549.672544 470.794118,552.075567 C473.308824,554.478589 475.294118,557.148615 476.75,560.219144 C478.205882,563.156171 479,566.627204 479,570.365239 C479,575.438287 477.941176,579.710327 475.955882,583.18136 C473.970588,586.652393 471.191176,589.589421 467.882353,591.725441 C464.441176,593.861461 460.602941,595.463476 456.102941,596.531486 C451.602941,597.465995 446.970588,598 442.073529,598 C440.485294,598 438.367647,597.866499 435.985294,597.599496 C433.602941,597.332494 431.088235,596.93199 428.573529,596.397985 C426.058824,595.86398 423.676471,595.329975 421.426471,594.528967 C419.176471,593.861461 417.323529,593.060453 416,592.125945 Z" id="Shape" fill="#323232"></path>
            <g id="Group" transform="translate(515.000000, 490.000000)" fill="#025B7A">
                <path d="M80.1147059,52.8 C89.7046218,48.5333333 93.4340336,40.9333333 93.4340336,32.9333333 C93.4340336,12.2666667 78.3831933,3.2 58.1378151,3.2 C41.8882353,3.2 25.6386555,3.2 9.52226891,3.2 L9.52226891,67.4666667 L0.0655462185,67.4666667 L0.0655462185,82 L9.52226891,82 L9.52226891,106 C25.7718487,106 41.8882353,106 58.1378151,106 C79.4487395,106 96.497479,98.6666667 96.497479,75.7333333 C96.497479,69.2 92.1021008,56.4 80.1147059,52.8 Z M28.4357143,20.8 L58.0046218,20.8 C70.2584034,20.8 74.1210084,28.6666667 74.1210084,33.4666667 C74.1210084,39.3333333 70.1252101,44.5333333 58.0046218,44.5333333 L28.4357143,44.5333333 L28.4357143,20.8 Z M58.0046218,87.8666667 L28.4357143,87.8666667 L28.4357143,81.8666667 L37.4928571,81.8666667 L37.4928571,67.3333333 L28.4357143,67.3333333 L28.4357143,61.3333333 L58.0046218,61.3333333 C65.8630252,61.3333333 77.1844538,66.1333333 77.1844538,75.4666667 C77.3176471,85.2 65.9962185,87.8666667 58.0046218,87.8666667 Z" id="Shape"></path>
                <path d="M117.941597,20.8 L150.440756,20.8 L150.440756,106 L169.753782,106 L169.753782,20.8 L202.252941,20.8 L202.252941,3.2 C172.55084,3.2 147.377311,3.2 117.808403,3.2 L117.808403,20.8 L117.941597,20.8 Z" id="Shape"></path>
                <path d="M302.813866,79.6 C296.021008,86.4 285.898319,90 276.97437,90 C251.667647,90 241.811345,72.2666667 241.678151,55.2 C241.544958,38 252.20042,19.4666667 276.97437,19.4666667 C285.898319,19.4666667 294.955462,22.5333333 301.748319,29.2 L314.668067,16.6666667 C304.145798,6.26666667 290.959664,0.933333333 276.97437,0.933333333 C239.813445,0.933333333 222.365126,28.2666667 222.631513,55.0666667 C222.764706,81.7333333 238.881092,108 276.97437,108 C291.758824,108 305.477731,103.2 316,92.8 L302.813866,79.6 Z" id="Shape"></path>
            </g>
        </g>
    </g>
</svg>