<?xml version="1.0" encoding="UTF-8" standalone="no"?>
<!-- Created with Inkscape (http://www.inkscape.org/) -->

<svg
   xmlns:dc="http://purl.org/dc/elements/1.1/"
   xmlns:cc="http://creativecommons.org/ns#"
   xmlns:rdf="http://www.w3.org/1999/02/22-rdf-syntax-ns#"
   xmlns:svg="http://www.w3.org/2000/svg"
   xmlns="http://www.w3.org/2000/svg"
   version="1.1"
   width="500"
   height="273.05679"
   id="svg22131">
  <defs
     id="defs22133">
    <clipPath
       id="clipPath15128">
      <path
         d="m 1521.149,365.58 -32.686,0 0,-16.984 32.686,0 0,16.984 z"
         id="path15130" />
    </clipPath>
    <clipPath
       id="clipPath15128-1">
      <path
         d="m 1521.149,365.58 -32.686,0 0,-16.984 32.686,0 0,16.984 z"
         id="path15130-4" />
    </clipPath>
  </defs>
  <metadata
     id="metadata22136">
    <rdf:RDF>
      <cc:Work
         rdf:about="">
        <dc:format>image/svg+xml</dc:format>
        <dc:type
           rdf:resource="http://purl.org/dc/dcmitype/StillImage" />
        <dc:title></dc:title>
      </cc:Work>
    </rdf:RDF>
  </metadata>
  <g
     id="g13606">
    <path
       d="M 499.67409,112.98733 C 492.65954,38.711824 375.21959,-10.928655 237.31805,2.0667202 99.431776,15.061902 -6.6439991,85.809708 0.32460176,160.06745 7.339126,234.34296 124.7944,283.99856 262.66534,270.98541 400.55157,257.99268 506.65799,187.24488 499.67409,112.98733"
       id="path4659-4-1"
       style="fill:#ffffff;fill-opacity:1;fill-rule:nonzero;stroke:none" />
    <g
       transform="matrix(13.963943,0,0,-13.963943,-20763.181,5122.6435)"
       id="g15124"
       style="fill:#88bcd9;fill-opacity:1">
      <g
         clip-path="url(#clipPath15128)"
         id="g15126"
         style="fill:#88bcd9;fill-opacity:1">
        <path
           d="m 1504.795,349.246 c -8.288,0 -15.008,3.517 -15.008,7.855 0,4.339 6.72,7.855 15.008,7.855 8.29,0 15.009,-3.516 15.009,-7.855 0,-4.338 -6.719,-7.855 -15.009,-7.855 z m 16.339,9.177 c -0.379,4.631 -7.996,7.788 -17.014,7.051 -9.017,-0.737 -16.021,-5.089 -15.642,-9.72 0.378,-4.631 7.995,-7.788 17.013,-7.051 9.018,0.737 16.021,5.088 15.643,9.72"
           id="path15132"
           style="fill:#88bcd9;fill-opacity:1;fill-rule:nonzero;stroke:none" />
      </g>
    </g>
    <g
       transform="matrix(0.25000001,0,0,0.25000001,283.58986,-108.40565)"
       id="g23368"
       style="fill:#7b8083;fill-opacity:1">
      <path
         d="m -697.00746,1066.1311 c 0,17.036 1.65335,23.9063 26.58733,23.6829 39.76932,-0.4022 71.55347,-21.2252 71.55347,-66.4684 0,-48.59452 -37.19994,-74.12057 -73.1174,-74.2323 l -25.0234,0 0,117.0178 z m 21.50224,-129.47356 c 32.17737,-0.13328 50.49362,-20.05216 50.49362,-56.6377 0,-12.00903 2.23421,-62.55851 -51.38731,-62.27918 -26.19413,0.17891 -20.60855,-0.4022 -20.60855,34.07197 l 0,84.84491 21.50224,0 z m -66.24046,-32.50811 c 0,-29.49175 -0.53623,-39.48998 -0.84901,-58.59262 -0.58092,-24.46497 -7.4847,-27.81615 -37.36977,-27.81615 -4.58015,0 -4.58015,-3.29788 -4.58015,-7.03793 0,-2.5112 0.84901,-5.41802 3.75349,-5.41802 3.35137,0 33.23195,1.67578 59.37247,1.67578 11.6761,0 27.65082,-1.67578 47.5891,-1.67578 46.53007,0 97.30071,10.78017 97.30071,68.98192 0,26.14056 -16.42154,46.24859 -36.58324,56.19096 -20.44322,10.10979 -20.72473,8.2666 -20.72473,11.17104 0,1.67578 2.45763,1.67578 7.87787,2.90463 44.01438,9.16026 75.68236,38.54046 75.57063,81.32594 0,34.8539 -28.98688,76.4105 -94.16835,76.4105 -10.38915,0 -26.98055,-0.8356 -70.60168,-0.8356 -61.05259,0 -62.72826,0.8356 -65.63278,0.8356 -3.30664,0 -3.30664,-1.6755 -3.30664,-5.418 0,-4.58 0,-7.0377 11.618,-7.0377 26.58734,0 29.04498,-7.0936 29.49183,-18.3207 0.849,-20.7226 1.2065,-47.7566 1.2065,-65.5747 l 0,-101.76917"
         id="path15134"
         style="fill:#7b8083;fill-opacity:1;fill-rule:nonzero;stroke:none" />
      <path
         d="m -478.66502,1051.0501 c 0,20.2756 0.71493,24.5206 17.03372,24.5206 10.00047,0 10.72434,0.3129 10.72434,4.6361 0,2.1225 0,4.5802 -3.66414,4.5802 -1.83209,0 -6.70266,-0.6704 -32.61976,-0.6704 -34.85397,0 -55.35087,0.6704 -59.09541,0.6704 -2.94921,0 -2.94921,-2.1227 -2.94921,-3.91 0,-4.58 0.53627,-5.3063 14.12931,-5.3063 7.76169,0 11.11755,-3.5748 13.29367,-8.5459 1.51928,-3.186 2.23424,-50.1026 2.23424,-65.3512 l 0,-131.59614 c 0,-30.94406 -1.11716,-35.18909 -21.44861,-36.97659 -2.23424,-0.35747 -3.35136,-1.78733 -3.35136,-4.24503 0,-2.85078 1.11712,-4.63591 2.94921,-4.9711 29.9923,-4.97128 58.70212,-15.30453 62.38864,-15.30453 1.51925,0 2.23425,1.78733 2.23425,3.90984 0,1.45232 -1.83209,4.97128 -1.83209,51.164 l 0,187.39605"
         id="path15136"
         style="fill:#7b8083;fill-opacity:1;fill-rule:nonzero;stroke:none" />
      <path
         d="m -426.50019,981.56554 c 0,-31.27925 -3.66414,-33.40177 -23.00813,-33.40177 -2.94917,0 -8.15494,0 -8.15494,-3.57483 0,-2.85077 0,-7.09361 4.0663,-7.09361 3.75352,0 9.66524,1.06345 21.89542,1.06345 13.01668,0 34.35356,-1.06345 39.54593,-1.06345 2.23424,0 2.94917,0 2.94917,4.9711 l 0,92.27367 c 0,26.6991 1.65336,41.9477 29.15674,41.9477 13.34722,0 33.12016,-11.4503 33.12016,-22.454 l 0,-95.68091 c 0,-19.1585 0,-21.28102 -19.43775,-21.28102 -6.64459,0 -15.46981,0 -15.46981,-3.57483 0,-5.3061 0,-7.09361 2.63641,-7.09361 5.19682,0 9.60718,1.05907 32.28459,1.05907 9.27202,0 26.14052,-1.05907 35.41255,-1.05907 3.35137,0 5.19686,1.45232 5.19686,4.97128 0,1.45213 -3.30668,36.02689 -3.30668,61.27379 l 0,66.8034 c 0,5.6414 0,13.1261 9.27206,13.1261 5.19682,0 13.35176,-1.3943 15.97473,-1.3943 1.47455,0 2.18955,0 2.18955,6.7028 0,2.1225 -0.58092,2.8509 -12.23464,4.6361 -31.55627,4.9711 -47.70082,9.272 -49.93507,9.272 -2.54702,0 -4.46849,-2.5112 -4.46849,-5.027 0,-4.245 0.75969,-9.8865 1.11716,-13.4613 -18.54413,13.1261 -37.53505,19.5495 -51.66432,19.5495 -36.7531,0 -47.14229,-22.7333 -47.14229,-59.7097 l 0,-51.77837"
         id="path15138"
         style="fill:#7b8083;fill-opacity:1;fill-rule:nonzero;stroke:none" />
      <path
         d="m -161.01555,974.63934 c 7.65,0 13.68242,-2.9625 13.68242,-13.29355 0,-29.88281 -20.66215,-36.41795 -33.67879,-36.36208 -24.79998,0.0438 -36.08279,23.62699 -39.9391,49.65563 l 59.93547,0 z m -61.55304,10.83604 c -1.11712,7.26139 -1.51928,14.5226 -1.51928,21.78382 0,24.9117 17.42697,64.5134 59.15346,64.5134 17.59234,0 32.56171,-6.6469 44.79635,-24.2974 2.27894,-3.0742 3.84291,-6.4792 5.75094,-6.4792 2.68106,0 6.14412,3.4096 6.14412,4.5802 0,1.1171 -14.74591,48.6504 -65.85174,48.5945 -54.40349,-0.044 -88.98044,-34.6864 -89.36923,-85.9061 -0.58086,-54.73867 34.68422,-93.27913 82.44311,-93.22327 63.72919,0.0438 70.71344,54.73865 70.71344,66.24489 0,3.79829 -1.56397,4.18697 -4.58022,4.18697 l -107.68986,0"
         id="path15140"
         style="fill:#7b8083;fill-opacity:1;fill-rule:nonzero;stroke:none" />
      <path
         d="m 133.96111,1036.4159 c 0,-28.5982 -12.51196,-39.88102 -68.872487,-69.6521 C 31.686892,949.05744 3.870701,930.1224 3.870701,887.83951 c 0,-42.2827 27.034187,-81.77287 86.634536,-81.77287 28.598303,0 45.131503,7.26139 54.345253,7.26139 4.46849,0 6.20247,-7.26139 9.3839,-7.26139 2.41313,0 3.61953,2.01097 3.61953,5.25061 0,31.3908 6.03238,62.83765 6.03238,65.63036 0,2.01097 -2.01082,4.02175 -4.02156,4.02175 -4.42395,0 -4.52659,0 -5.36234,-2.40403 -11.22928,-31.39098 -24.12941,-63.34044 -62.393027,-63.34044 -28.204911,0 -54.680518,23.06834 -54.403492,52.44854 0,24.1296 14.745947,33.5135 29.661643,43.17655 46.302116,29.38001 108.748856,42.61789 108.748856,106.96372 0,59.3747 -44.12585,84.6215 -98.918212,84.6215 -28.99137,0 -52.397199,-3.1816 -69.7080187,-5.5857 -2.7704424,-0.4467 -3.1725993,-0.8356 -3.6194483,-4.8593 -2.7704789,-43.0648 -5.585577,-59.2072 -5.585577,-61.218 0,-3.2396 2.01078432,-4.0215 6.8724497,-4.0215 3.1726723,0 3.6194849,1.2287 4.4237986,5.2504 9.2720997,31.7819 25.7517687,61.4971 67.2503847,61.4971 36.641443,0 57.084473,-26.308 57.138113,-57.0845"
         id="path15142"
         style="fill:#7b8083;fill-opacity:1;fill-rule:nonzero;stroke:none" />
      <path
         d="m 252.48673,996.64661 c 11.0595,0 26.25229,-11.00363 58.92584,-42.6179 2.68113,-2.12251 7.20293,-6.7586 7.20293,-12.06488 0,-8.88112 -7.9314,-9.60719 -19.71456,-9.60719 -4.20052,0 -4.58025,-0.72844 -4.58025,-4.63608 0,-3.18159 1.92132,-4.58023 3.79814,-4.58023 12.95855,0 25.47018,0.67039 38.42873,0.67039 11.78355,0 23.95999,-0.67039 35.35464,-0.67039 1.51935,0 3.39573,0 3.39573,3.52116 0,5.69734 -0.75947,5.69734 -12.17643,5.69734 -2.99369,0 -11.78754,1.78733 -27.76248,14.91347 -45.63207,37.31161 -40.49319,37.1442 -40.49319,39.26671 0,2.12252 19.77305,27.98359 72.21922,83.78349 15.19275,15.9749 16.86838,19.5495 35.85925,19.8289 4.11106,0.044 5.3087,1.0634 5.3087,5.6971 0,1.7875 -1.16185,3.5749 -4.20049,3.5749 -7.98511,0 -19.77265,-0.7283 -50.54714,-0.7283 -12.17644,0 -32.67789,0.7283 -36.14081,0.7283 -3.39606,0 -3.39606,-1.0591 -3.39606,-4.9711 0,-2.4577 0.71493,-4.2451 4.20048,-4.2451 1.51928,0 12.90484,-1.059 12.90484,-3.9098 0,-3.5748 -24.57666,-29.9389 -66.02142,-75.7964 -3.79847,-4.245 -8.77194,-4.5802 -12.56567,-4.5802 l 0,57.4198 c 0,9.9424 2.27916,15.9747 27.03003,15.9747 0.71493,0 1.83187,1.0591 1.83187,4.5803 0,2.1805 -0.58093,4.6359 -4.11103,4.6359 -1.92133,0 -6.87252,-0.6702 -33.45961,-0.6702 -35.7479,0 -52.89306,0.6702 -55.96748,0.6702 -2.99408,0 -2.99408,-2.1226 -2.99408,-3.9099 0,-4.5802 0.58089,-5.3063 1.92165,-5.3063 1.51935,0 21.28324,-0.7284 24.74616,-4.9711 3.03863,-3.91 3.03863,-31.8379 3.03863,-79.81792 l 0,-124.3349 c 0,-30.94406 -1.11697,-35.18909 -22.06535,-36.97659 -2.27876,-0.31292 -3.39606,-1.78733 -3.39606,-4.24503 0,-2.84639 1.1173,-4.63591 3.0835,-4.9711 30.77408,-4.97109 56.24426,-15.30452 60.04277,-15.30452 1.51895,0 2.27875,1.7875 2.27875,3.91002 0,1.45213 -1.92133,4.97109 -1.92133,51.16381 l 0,132.88083"
         id="path15144"
         style="fill:#7b8083;fill-opacity:1;fill-rule:nonzero;stroke:none" />
      <path
         d="m 523.61075,957.49163 c 0,-11.7297 -14.24528,-12.95837 -24.91153,-12.95837 -3.17267,0 -3.57464,-1.56404 -3.57464,-4.41043 0,-2.45771 1.83183,-4.18698 3.61919,-4.18698 11.34101,0 23.07086,0.72826 34.40716,0.72826 11.05946,0 21.06011,-0.72826 32.06115,-0.72826 2.50262,0 2.10024,2.79272 2.10024,4.18698 0,3.23963 -1.07236,4.07524 -6.08603,4.41043 -12.01099,1.11694 -18.43221,3.9679 -23.79455,16.3656 -12.79318,29.5478 -66.24492,147.06824 -75.40536,166.39434 -32.3427,67.8089 -46.36013,119.2521 -79.42686,119.4197 -14.6922,0.044 -21.11342,-6.2 -21.11342,-17.818 0,-10.6686 9.04872,-19.3261 19.32606,-19.3261 8.87897,0 18.65575,8.8251 22.90078,8.8251 7.65026,0 45.52033,-93.7258 51.27588,-107.0754 0,0 -10.89442,-28.2073 -14.91599,-38.0379 -23.45943,-57.0844 -40.04627,-87.1907 -49.48826,-107.41046 -3.75316,-7.93159 -16.13992,-8.32264 -20.77823,-8.32264 -2.50222,0 -3.21714,-2.28774 -3.21714,-4.8035 0,-2.7929 2.2342,-3.79829 4.28957,-3.79829 4.28991,0 36.0247,2.18057 48.81781,2.18057 12.0651,0 28.93349,-0.6702 39.59974,-0.6702 3.57465,0 3.84266,1.73383 3.84266,4.18697 0,1.78732 -1.07243,4.41043 -3.57465,4.41043 -2.05537,0 -18.0971,-0.55865 -17.3734,8.04314 0.80442,9.49545 14.41071,38.76388 37.03465,95.28988 15.41629,-33.29 44.57285,-93.50237 44.34939,-104.89706"
         id="path15146"
         style="fill:#7b8083;fill-opacity:1;fill-rule:nonzero;stroke:none" />
      <path
         d="m 517.07342,1083.223 0,16.3658 -2.85972,0 0,-16.3658 -4.37907,0 0,-2.681 11.61779,0 0,2.681 -4.42355,0"
         id="path15148"
         style="fill:#7b8083;fill-opacity:1;fill-rule:nonzero;stroke:none" />
      <path
         d="m 523.3292,1099.5888 4.02157,-20.4991 6.53733,14.8017 6.75641,-14.8017 3.61959,20.4991 -2.94921,0 -1.83223,-11.5063 -5.64349,12.3999 -5.47407,-12.3999 -2.01074,11.5063 -2.99376,0"
         id="path15150"
         style="fill:#7b8083;fill-opacity:1;fill-rule:nonzero;stroke:none" />
    </g>
  </g>
</svg>
