<?xml version="1.0" encoding="utf-8"?>
<!-- Generator: Adobe Illustrator 22.0.1, SVG Export Plug-In . SVG Version: 6.00 Build 0)  -->
<svg version="1.1" id="Layer_1" xmlns="http://www.w3.org/2000/svg" xmlns:xlink="http://www.w3.org/1999/xlink" x="0px" y="0px"
	 viewBox="0 0 800 200" style="enable-background:new 0 0 800 200;" xml:space="preserve">
<style type="text/css">
	.st0{fill:#025B7A;}
	.st1{fill:#323232;}
</style>
<polygon class="st0" points="123,41.3 97.4,101.3 80.9,62.9 61.9,63.9 38.8,126.1 38.7,126.1 38.6,71 83.4,43.9 103.5,55.9 
	112.4,34.9 83.4,17.5 16,58.4 16.1,138.8 30.4,147.4 30.4,147.4 46.3,156.9 71.8,97.1 86.5,130.9 106.1,130.1 128.3,72.5 
	128.4,125.9 83.6,153 65.8,142.4 56.9,163.3 83.6,179.4 151.1,138.5 151,58.1 "/>
<path class="st1" d="M233.7,137.4H232c0,0-51.6-55.1-52.3-56.8c0,0,0-4.2,0,1.2v55.6h-9.2v-77h1.8l52.2,54.2c2.6,2.1,0,5.3,0,0V60.5
	h9.2V137.4z"/>
<path class="st1" d="M324.2,137.4h-47.7v-77H325v8.2h-39.2v25.6h32.9v8.1h-32.9v26.9h38.4V137.4z"/>
<path class="st1" d="M455.5,60.5l-22.1,77h-10.8l-16.1-56.2c-0.7-2.4-1.1-5-1.3-7.8H405c-0.2,2.6-0.7,5.2-1.4,7.7l-16.2,56.4h-10.7
	l-22.9-77h10.1l16.7,59c0.7,2.5,1.1,5,1.3,7.7h0.3c0.2-1.9,0.7-4.5,1.7-7.7l17.3-59h8.8l16.6,59.5c0.6,2,1,4.4,1.3,7.2h0.2
	c0.1-1.9,0.6-4.3,1.5-7.4l16-59.3H455.5z"/>
<path class="st1" d="M482.9,134.3v-10.6c1.2,1.1,2.7,2,4.5,2.9c1.7,0.9,3.6,1.6,5.5,2.2c1.9,0.6,3.8,1,5.8,1.4
	c1.9,0.3,3.7,0.5,5.4,0.5c5.6,0,9.9-1,12.6-3.1c2.8-2.1,4.2-5,4.2-8.9c0-2.1-0.5-3.9-1.4-5.4c-0.9-1.5-2.2-2.9-3.9-4.2
	c-1.6-1.3-3.6-2.5-5.8-3.6c-2.2-1.2-4.7-2.4-7.2-3.7c-2.7-1.4-5.3-2.7-7.6-4.1c-2.4-1.4-4.4-2.9-6.2-4.6c-1.7-1.7-3.1-3.6-4.1-5.7
	c-1-2.1-1.5-4.6-1.5-7.5c0-3.5,0.8-6.6,2.3-9.2c1.6-2.6,3.6-4.7,6.2-6.4c2.5-1.7,5.5-2.9,8.7-3.8c3.3-0.8,6.6-1.2,10-1.2
	c7.7,0,13.3,0.9,16.9,2.7v10.1c-4.6-3.1-10.6-4.7-17.8-4.7c-2,0-4,0.2-6,0.6c-2,0.4-3.8,1.1-5.4,2c-1.6,0.9-2.8,2.1-3.8,3.6
	c-1,1.5-1.5,3.3-1.5,5.4c0,2,0.4,3.7,1.1,5.1c0.7,1.4,1.8,2.7,3.3,3.9c1.5,1.2,3.2,2.3,5.3,3.4c2.1,1.1,4.5,2.3,7.2,3.6
	c2.8,1.4,5.5,2.8,8,4.3c2.5,1.5,4.7,3.2,6.6,5c1.9,1.8,3.4,3.8,4.5,6.1c1.1,2.2,1.7,4.8,1.7,7.6c0,3.8-0.8,7-2.3,9.6
	c-1.5,2.6-3.6,4.8-6.1,6.4c-2.6,1.6-5.5,2.8-8.9,3.6c-3.4,0.7-6.9,1.1-10.6,1.1c-1.2,0-2.8-0.1-4.6-0.3c-1.8-0.2-3.7-0.5-5.6-0.9
	c-1.9-0.4-3.7-0.8-5.4-1.4C485.3,135.6,483.9,135,482.9,134.3z"/>
<g>
	<path class="st0" d="M617.9,97.6c7.2-3.2,10-8.9,10-14.9c0-15.5-11.3-22.3-26.5-22.3c-12.2,0-24.4,0-36.5,0v48.2h-7.1v10.9h7.1v18
		c12.2,0,24.3,0,36.5,0c16,0,28.8-5.5,28.8-22.7C630.2,109.9,626.9,100.3,617.9,97.6z M579.1,73.6h22.2c9.2,0,12.1,5.9,12.1,9.5
		c0,4.4-3,8.3-12.1,8.3h-22.2V73.6z M601.3,123.9h-22.2v-4.5h6.8v-10.9h-6.8v-4.5h22.2c5.9,0,14.4,3.6,14.4,10.6
		C615.8,121.9,607.3,123.9,601.3,123.9z"/>
	<path class="st0" d="M646.3,73.6h24.4v63.9h14.5V73.6h24.4V60.4c-22.3,0-41.2,0-63.4,0V73.6z"/>
	<path class="st0" d="M785.1,117.7c-5.1,5.1-12.7,7.8-19.4,7.8c-19,0-26.4-13.3-26.5-26.1c-0.1-12.9,7.9-26.8,26.5-26.8
		c6.7,0,13.5,2.3,18.6,7.3l9.7-9.4c-7.9-7.8-17.8-11.8-28.3-11.8c-27.9,0-41,20.5-40.8,40.6c0.1,20,12.2,39.7,40.8,39.7
		c11.1,0,21.4-3.6,29.3-11.4L785.1,117.7z"/>
</g>
</svg>
