<?xml version="1.0" encoding="UTF-8" standalone="no"?>
<!-- Created with Inkscape (http://www.inkscape.org/) -->
<svg
   xmlns:dc="http://purl.org/dc/elements/1.1/"
   xmlns:cc="http://web.resource.org/cc/"
   xmlns:rdf="http://www.w3.org/1999/02/22-rdf-syntax-ns#"
   xmlns:svg="http://www.w3.org/2000/svg"
   xmlns="http://www.w3.org/2000/svg"
   xmlns:sodipodi="http://sodipodi.sourceforge.net/DTD/sodipodi-0.dtd"
   xmlns:inkscape="http://www.inkscape.org/namespaces/inkscape"
   version="1.0"
   width="800"
   height="268.37701"
   viewBox="0 0 800 268.377"
   id="Layer_1"
   xml:space="preserve"
   sodipodi:version="0.32"
   inkscape:version="0.45.1"
   sodipodi:docname="Samsungin_logo2.svg"
   inkscape:output_extension="org.inkscape.output.svg.inkscape"
   sodipodi:docbase="H:\"><metadata
   id="metadata9"><rdf:RDF><cc:Work
       rdf:about=""><dc:format>image/svg+xml</dc:format><dc:type
         rdf:resource="http://purl.org/dc/dcmitype/StillImage" /></cc:Work></rdf:RDF></metadata><sodipodi:namedview
   inkscape:window-height="1150"
   inkscape:window-width="1600"
   inkscape:pageshadow="2"
   inkscape:pageopacity="0.0"
   guidetolerance="10.0"
   gridtolerance="10.0"
   objecttolerance="10.0"
   borderopacity="1.0"
   bordercolor="#666666"
   pagecolor="#ffffff"
   id="base"
   inkscape:zoom="0.835"
   inkscape:cx="400"
   inkscape:cy="109.44387"
   inkscape:window-x="-8"
   inkscape:window-y="-8"
   inkscape:current-layer="Layer_1" /><defs
   id="defs12" />
<g
   id="g3"
   style="fill:#1428a0;fill-opacity:1">
	<g
   id="g5"
   style="fill:#1428a0;fill-opacity:1">
		<g
   id="g7"
   style="fill:#1428a0;fill-opacity:1">
			<path
   d="M 409.374,160.63 C 404.724,160.63 402.819,158.67 402.819,153.371 L 402.819,147.25 L 380.939,147.25 L 380.939,158.504 C 380.939,168.764 392.682,175.347 409.726,175.347 C 428.632,175.347 436.263,166.363 437.726,159.242 C 437.96,157.586 438.126,154.895 438.126,152.625 C 438.126,149.5 438.043,147.25 437.615,144.2 C 436.773,134.009 427.41,128.572 418.965,125.245 C 407.007,120.525 403.791,117.876 402.902,113.653 C 402.515,112.411 402.591,109.844 402.902,108.574 C 403.537,106.442 406.31,104.834 409.553,104.834 C 413.265,104.834 416.267,107.366 416.267,110.513 L 416.267,117.137 L 436.808,117.137 L 436.808,107.256 C 436.808,94.463 422.339,90.496 409.808,90.523 C 396.381,90.558 385.458,94.677 383.147,105.241 C 382.684,107.752 382.394,110.947 382.394,114.321 C 382.394,120.442 383.305,125.72 384.617,128.135 C 385.983,130.702 390.806,135.663 403.026,141.287 C 414.956,146.793 415.577,148.739 416.301,151.402 C 416.481,152.023 416.571,152.685 416.571,153.369 C 416.571,157.38 413.355,160.63 409.374,160.63 M 573.057,93.147 L 547.534,93.147 L 547.534,172.732 L 567.924,172.732 L 566.744,123.749 L 568.269,123.749 L 590.838,172.732 L 615.106,172.732 L 615.106,93.147 L 594.716,93.147 L 595.889,142.124 L 594.371,142.124 L 573.057,93.147 z M 520.389,154.613 L 520.389,93.147 L 497.191,93.147 L 497.191,155.192 C 497.191,158.035 494.528,160.346 491.312,160.346 C 488.097,160.346 485.426,158.034 485.426,155.192 L 485.426,93.147 L 462.221,93.147 L 462.221,154.613 C 462.221,166.115 475.29,175.355 491.312,175.355 C 507.32,175.355 520.389,166.116 520.389,154.613 z M 313.622,136.984 L 311.862,136.984 L 304.521,93.148 L 269.772,93.148 L 268.123,172.733 L 288.478,172.733 L 288.478,111.509 L 290.465,111.509 L 302.375,172.733 L 323.062,172.733 L 334.978,111.509 L 336.958,111.509 L 336.958,172.733 L 357.313,172.733 L 355.657,93.148 L 319.922,93.148 L 313.574,136.984 M 216.496,110.963 L 225.08,172.733 L 247.601,172.733 L 233.035,93.148 L 198.459,93.148 L 183.9,172.733 L 206.408,172.733 L 214.999,110.963 L 216.496,110.963 z M 379.869,19.993 C 600.499,-18.903 788.374,0.68 799.483,63.753 C 805.121,95.679 764.348,132.643 694.091,166.391 C 696.423,163.59 697.686,160.064 697.686,156.558 L 697.686,128.771 L 670.404,128.771 L 670.404,139.618 L 675.73,139.618 L 675.73,155.24 C 675.73,158.09 673.046,160.394 669.803,160.394 C 666.574,160.394 663.897,158.089 663.897,155.24 L 663.897,109.672 C 663.897,106.829 666.574,104.525 669.803,104.525 C 673.046,104.525 675.73,106.83 675.73,109.672 L 675.73,117.165 L 697.686,117.165 L 697.686,111.769 C 697.686,97.831 689.841,90.51 669.803,90.51 C 650.103,90.51 643.224,100.405 643.224,110.858 L 643.224,156.557 C 643.224,167.011 655.167,175.408 669.803,175.408 C 671.404,175.408 672.984,175.311 674.509,175.118 L 674.474,175.401 C 607.716,204.713 519.03,230.94 420.138,248.383 C 199.515,287.281 11.626,267.699 0.517,204.618 C -5.217,172.133 37.101,134.437 109.642,100.192 C 109.228,101.324 108.641,103.276 108.4,104.656 C 107.951,107.181 107.669,110.369 107.669,113.73 C 107.669,119.864 108.559,125.143 109.842,127.558 C 111.153,130.118 115.3,135.665 127.21,141.289 C 138.864,146.795 139.464,148.741 140.168,151.404 C 140.348,152.025 140.431,152.687 140.431,153.371 C 140.431,157.38 137.285,160.63 133.413,160.63 C 128.873,160.63 127.017,158.67 127.017,153.371 L 127.017,147.25 L 105.668,147.25 L 105.668,158.504 C 105.668,168.764 117.122,175.347 133.744,175.347 C 152.202,175.347 159.647,166.363 161.068,159.242 C 161.303,157.586 161.462,154.895 161.462,152.625 C 161.462,149.5 161.386,147.25 160.972,144.2 C 160.138,134.009 151.015,128.572 142.77,125.245 C 131.102,120.525 127.969,117.876 127.1,113.653 C 126.713,112.411 126.803,109.844 127.1,108.574 C 127.707,106.442 130.419,104.834 133.586,104.834 C 137.202,104.834 140.134,107.366 140.134,110.513 L 140.134,117.137 L 160.178,117.137 L 160.178,107.256 C 160.178,94.463 146.068,90.496 133.834,90.523 C 133.31,90.523 131.364,90.654 130.846,90.661 C 196.969,62.284 283.579,36.974 379.869,19.993"
   style="fill:#1428a0;fill-opacity:1"
   id="path9" />
		</g>
	</g>
</g>
</svg>